<svg data-v-423bf9ae="" xmlns="http://www.w3.org/2000/svg" viewBox="0 0 495 90" class="iconLeft"><!----><!----><!----><g data-v-423bf9ae="" id="7254f8f9-11b2-4690-9858-bf27d24b6d07" fill="#250A05" transform="matrix(5.439916133880615,0,0,5.439916133880615,167.4484100341797,17.112144470214844)"><path d="M5.78 10.50L7.10 10.50L3.95 6.33L6.96 3.14L5.63 3.14L2.30 6.79L2.30-0.39L1.16-0.39L1.16 10.50L2.30 10.50L2.30 7.88L3.22 7.10ZM8.60 10.50L9.72 10.50L9.72 3.14L8.60 3.14ZM8.54 1.61L9.77 1.61L9.77 0.35L8.54 0.35ZM17.26 8.48C17.26 6.92 15.97 6.57 14.78 6.26C13.30 5.88 12.89 5.56 12.89 4.84C12.89 4.24 13.50 3.85 14.36 3.85C15.30 3.85 15.90 4.17 16.07 4.93L17.11 4.80C16.86 3.56 15.88 3.00 14.36 3.00C12.85 3.00 11.80 3.72 11.80 5.01C11.80 6.19 12.56 6.82 14.17 7.21C15.46 7.52 16.17 7.71 16.17 8.57C16.17 9.48 15.46 9.80 14.42 9.80C13.33 9.80 12.74 9.25 12.54 8.57L11.49 8.78C11.82 10.14 12.88 10.64 14.43 10.64C16.31 10.64 17.26 9.87 17.26 8.48ZM24.22 8.48C24.22 6.92 22.93 6.57 21.74 6.26C20.26 5.88 19.85 5.56 19.85 4.84C19.85 4.24 20.45 3.85 21.32 3.85C22.26 3.85 22.86 4.17 23.03 4.93L24.07 4.80C23.81 3.56 22.83 3.00 21.32 3.00C19.81 3.00 18.76 3.72 18.76 5.01C18.76 6.19 19.52 6.82 21.13 7.21C22.41 7.52 23.13 7.71 23.13 8.57C23.13 9.48 22.41 9.80 21.38 9.80C20.29 9.80 19.70 9.25 19.50 8.57L18.45 8.78C18.77 10.14 19.84 10.64 21.39 10.64C23.27 10.64 24.22 9.87 24.22 8.48ZM28.78 10.64C30.70 10.64 31.30 9.73 31.64 8.90L30.67 8.62C30.41 9.34 29.99 9.79 28.81 9.79C27.30 9.79 26.75 8.64 26.75 7.06L26.75 7.04L31.79 7.04C31.81 6.89 31.82 6.66 31.82 6.52C31.82 4.59 31.21 3.00 28.76 3.00C26.92 3.00 25.55 4.09 25.55 6.76C25.55 9.30 26.61 10.64 28.78 10.64ZM28.76 3.84C30.02 3.84 30.63 4.54 30.63 6.08L30.63 6.17L26.75 6.17C26.84 4.34 27.78 3.84 28.76 3.84ZM40.33 9.73L39.68 9.73C39.37 9.73 39.24 9.60 39.24 9.23L39.24 5.50C39.24 3.85 38.29 3.00 36.57 3.00C34.65 3.00 33.95 3.88 33.77 4.97L34.89 5.10C35.04 4.19 35.57 3.86 36.51 3.86C37.56 3.86 38.14 4.35 38.14 5.46L38.14 6.06L36.75 6.06C34.61 6.06 33.43 6.69 33.43 8.43C33.43 9.60 34.17 10.64 35.77 10.64C36.86 10.64 37.80 10.28 38.18 9.09L38.18 9.45C38.18 10.22 38.65 10.64 39.38 10.64C39.77 10.64 40.07 10.63 40.33 10.60ZM36.04 9.80C35.03 9.80 34.55 9.16 34.55 8.36C34.55 7.18 35.45 6.85 36.74 6.85L38.14 6.85L38.14 7.38C38.14 8.53 37.70 9.80 36.04 9.80ZM45.33 4.07L45.33 3.02C45.12 3.01 45.01 3.01 44.94 3.01C43.90 3.01 43.26 3.61 43.05 4.59L42.99 3.14L41.92 3.14L41.96 4.84L41.96 10.50L43.09 10.50L43.09 6.13C43.09 5.14 43.60 4.06 44.84 4.06C44.98 4.06 45.12 4.06 45.33 4.07ZM49.55 10.64C51.30 10.64 52.19 9.51 52.36 8.32L51.23 8.23C51.07 9.23 50.44 9.73 49.52 9.73C48.05 9.73 47.57 8.51 47.57 6.76C47.57 4.82 48.09 3.89 49.50 3.89C50.48 3.89 51.02 4.41 51.16 5.25L52.32 5.18C52.08 3.93 51.18 3.00 49.53 3.00C47.94 3.00 46.38 3.88 46.38 6.79C46.38 8.97 47.24 10.64 49.55 10.64ZM55.36 3.16L55.36-0.39L54.22-0.39L54.22 10.50L55.36 10.50L55.36 6.24C55.36 4.69 56.15 3.86 57.34 3.86C58.59 3.86 58.91 4.49 58.91 5.80L58.91 10.50L60.05 10.50L60.05 5.57C60.05 4.16 59.60 3.00 57.65 3.00C56.42 3.00 55.69 3.50 55.31 4.45C55.34 4.07 55.36 3.61 55.36 3.16Z"></path></g><defs data-v-423bf9ae=""><linearGradient data-v-423bf9ae="" gradientTransform="rotate(25)" id="edf2a97b-e9c4-4930-bc19-dd88e8e24365" x1="0%" y1="0%" x2="100%" y2="0%"><stop data-v-423bf9ae="" offset="0%" style="stop-color: rgb(48, 34, 58); stop-opacity: 1;"></stop><stop data-v-423bf9ae="" offset="100%" style="stop-color: rgb(241, 56, 0); stop-opacity: 1;"></stop></linearGradient></defs><g data-v-423bf9ae="" id="2f0befaa-55b7-4645-a0d4-42175cd135e3" transform="matrix(4.804747581481934,0,0,4.804747581481934,0.1240386962890625,-31.229875564575195)" stroke="none" fill="url(#edf2a97b-e9c4-4930-bc19-dd88e8e24365)"><path d="M16 19.586l7.496-12.954H8.504zM7.496 12.414L0 25.368h14.992zM24.504 12.414l-7.496 12.954H32z"></path></g><!----></svg>